<svg width="444" height="430" viewBox="0 0 444 430" fill="none" xmlns="http://www.w3.org/2000/svg">
<path fill-rule="evenodd" clip-rule="evenodd" d="M132.704 86.5898C136.075 90.3716 137.968 95.498 137.968 100.843C137.968 106.188 136.075 111.314 132.704 115.096L43.4241 215.137L132.704 315.179C135.883 319.002 137.614 324.059 137.532 329.285C137.45 334.51 135.561 339.496 132.263 343.191C128.965 346.886 124.516 349.003 119.852 349.095C115.189 349.188 110.676 347.248 107.264 343.685L5.26415 229.391C1.89335 225.609 0 220.482 0 215.137C0 209.793 1.89335 204.666 5.26415 200.884L107.264 86.5898C110.639 82.8127 115.214 80.6911 119.984 80.6911C124.754 80.6911 129.329 82.8127 132.704 86.5898ZM311.264 86.5898C314.639 82.8127 319.214 80.6911 323.984 80.6911C328.754 80.6911 333.329 82.8127 336.704 86.5898L438.703 200.884C442.074 204.666 443.968 209.793 443.968 215.137C443.968 220.482 442.074 225.609 438.703 229.391L336.704 343.685C333.291 347.248 328.778 349.188 324.115 349.095C319.452 349.003 315.003 346.886 311.705 343.191C308.407 339.496 306.518 334.51 306.435 329.285C306.353 324.059 308.084 319.002 311.264 315.179L400.543 215.137L311.264 115.096C307.893 111.314 305.999 106.188 305.999 100.843C305.999 95.498 307.893 90.3716 311.264 86.5898ZM255.032 0.290729C257.363 0.739648 259.592 1.69905 261.593 3.11409C263.593 4.52913 265.324 6.37205 266.688 8.53748C268.053 10.7029 269.022 13.1484 269.543 15.7341C270.063 18.3198 270.123 20.995 269.72 23.6068L209.72 413.553C208.847 418.759 206.182 423.372 202.299 426.395C198.416 429.418 193.628 430.607 188.969 429.706C184.31 428.806 180.154 425.887 177.4 421.581C174.645 417.276 173.513 411.928 174.248 406.695L234.248 16.7491C235.057 11.4788 237.701 6.78445 241.599 3.69811C245.496 0.611766 250.328 -0.613855 255.032 0.290729Z" fill="url(#paint0_linear_25_884)"/>
<defs>
<linearGradient id="paint0_linear_25_884" x1="233.902" y1="-37.9474" x2="130.397" y2="518.734" gradientUnits="userSpaceOnUse">
<stop offset="0.357463" stop-color="#2A7FB2"/>
<stop offset="0.93608" stop-color="#111111" stop-opacity="0.5"/>
</linearGradient>
</defs>
</svg>
